<?xml version="1.0" standalone="no"?>
<!DOCTYPE svg PUBLIC "-//W3C//DTD SVG 20010904//EN"
 "http://www.w3.org/TR/2001/REC-SVG-20010904/DTD/svg10.dtd">
<svg version="1.0" xmlns="http://www.w3.org/2000/svg"
 width="1920.000000pt" height="1080.000000pt" viewBox="0 0 1920.000000 1080.000000"
 preserveAspectRatio="xMidYMid meet">

<g transform="translate(0.000000,1080.000000) scale(0.100000,-0.100000)"
fill="#000000" stroke="none">
<path d="M8100 7323 c-169 -17 -318 -54 -514 -130 -498 -192 -928 -636 -1105
-1144 -88 -253 -106 -365 -105 -659 0 -227 2 -254 27 -375 83 -391 261 -721
538 -996 328 -325 729 -513 1194 -559 68 -7 287 -10 573 -8 l463 3 0 415 -1
415 -487 6 c-524 6 -569 10 -727 63 -357 120 -624 414 -718 793 -32 126 -32
359 0 488 53 220 157 402 315 551 144 138 293 218 507 276 82 22 104 23 598
28 l513 5 2 418 2 417 -520 -2 c-286 0 -536 -3 -555 -5z"/>
<path d="M10027 6913 l2 -418 518 -6 c487 -5 523 -7 598 -27 366 -98 651 -349
775 -684 52 -142 64 -216 64 -388 0 -147 -3 -175 -27 -262 -110 -405 -392
-687 -798 -799 -82 -23 -96 -23 -599 -27 -283 -1 -518 -6 -523 -11 -5 -5 -11
-615 -7 -829 0 -21 1018 -11 1145 11 380 65 699 209 970 440 336 286 558 663
652 1103 25 120 27 145 27 374 0 197 -3 263 -18 335 -27 136 -69 288 -97 350
-4 11 -18 44 -29 72 -77 202 -243 445 -426 625 -282 277 -594 442 -1004 531
-88 19 -137 20 -660 24 l-565 4 2 -418z"/>
</g>
</svg>
